<?xml version="1.0" encoding="UTF-8"?>
<svg version="1.1" xmlns="http://www.w3.org/2000/svg" width="250" height="250">
<path d="M0 0 C7.76053567 7.05983995 11.6701763 14.29358475 12.1875 24.8125 C12.1466071 29.10625411 11.17649744 32.88225896 10 37 C10.70511719 37.26159912 11.41023438 37.52319824 12.13671875 37.79272461 C15.20213624 39.08522883 17.948621 40.62367546 20.8125 42.31640625 C21.37013535 42.64460861 21.92777069 42.97281097 22.50230408 43.31095886 C24.33678048 44.39160178 26.16835821 45.47706071 28 46.5625 C29.2934864 47.32555949 30.58719137 48.08824859 31.88110352 48.85058594 C34.57407293 50.43756199 37.26609026 52.02613614 39.95751953 53.61572266 C43.83025774 55.90160996 47.70886212 58.1773611 51.58984375 60.44921875 C52.20232971 60.8078299 52.81481567 61.16644104 53.44586182 61.53591919 C55.88077095 62.96134097 58.31585819 64.38645699 60.75140381 65.81079102 C67.05379239 69.49701728 73.34590083 73.19827973 79.60546875 76.95703125 C80.62584229 77.56772461 81.64621582 78.17841797 82.69750977 78.80761719 C84.59851647 79.94717487 86.49634338 81.09206015 88.39038086 82.24316406 C89.2231958 82.74170898 90.05601074 83.24025391 90.9140625 83.75390625 C91.6354541 84.19033447 92.3568457 84.6267627 93.10009766 85.07641602 C95.09759949 86.21860025 95.09759949 86.21860025 98 86 C99.45505142 84.77643403 100.90844317 83.55075076 102.34765625 82.30859375 C108.63984773 77.3254161 116.61072603 76.59492385 124.390625 77.1796875 C132.77540867 78.61624135 139.55286804 83.6413067 144.78515625 90.20703125 C149.70067789 97.46177219 151.14543889 105.89422828 149.5390625 114.45703125 C147.251013 123.21891492 142.61350783 129.55599738 135.203125 134.74609375 C129.17597711 138.17643856 121.92182117 140.15152784 115 139 C108.80279066 137.27116478 103.02420538 135.07368004 98 131 C98 130.34 98 129.68 98 129 C97.34 129 96.68 129 96 129 C94.7109375 127.3203125 94.7109375 127.3203125 93.375 125.125 C92.92898437 124.40570313 92.48296875 123.68640625 92.0234375 122.9453125 C91 121 91 121 91 119 C89.94860336 119.27482208 88.89720673 119.54964417 87.81394958 119.83279419 C77.79943293 122.45045723 67.78490077 125.06806096 57.77035427 127.68560982 C52.62448322 129.03061214 47.47861722 130.37563381 42.33276367 131.72070312 C40.83559091 132.11203871 40.83559091 132.11203871 39.30817223 132.51128006 C37.31078899 133.03337842 35.31341471 133.55551107 33.31604958 134.07767868 C28.44747489 135.35038784 23.57872168 136.62240547 18.70956421 137.8928833 C10.8588065 139.94182873 3.00876808 141.99244136 -4.83154297 144.08105469 C-5.92079575 144.36995575 -7.01004852 144.65885681 -8.13230896 144.95651245 C-10.01758377 145.45733948 -11.90186632 145.96192743 -13.7848053 146.47146606 C-17.33980415 147.41349686 -20.29584032 148 -24 148 C-23.938125 149.27875 -23.87625 150.5575 -23.8125 151.875 C-23.85529262 160.96129882 -26.74575784 168.40539092 -33 175 C-39.39979177 181.06947993 -46.26014336 183.47334926 -54.9375 184.4375 C-62.44500042 184.11770789 -70.21132232 180.69352245 -76 176 C-76 175.34 -76 174.68 -76 174 C-76.66 174 -77.32 174 -78 174 C-79.21875 172.4609375 -79.21875 172.4609375 -80.5 170.375 C-80.9228125 169.70210937 -81.345625 169.02921875 -81.78125 168.3359375 C-85.80480224 160.62412905 -86.44073949 151.80609386 -84.34765625 143.37109375 C-80.87603616 134.80379095 -74.3406107 127.93906471 -66 124 C-61.376406 122.33689933 -56.9129235 121.75435383 -52 122 C-49.2952404 115.16607152 -47.24724595 108.21183974 -45.2421875 101.14453125 C-44.8936673 99.92473068 -44.54514709 98.70493011 -44.18606567 97.44816589 C-43.45335263 94.88099948 -42.72190462 92.31351533 -41.99267578 89.74536133 C-41.0604711 86.46273913 -40.12357016 83.18148035 -39.18511772 79.90063953 C-38.28535421 76.75337404 -37.38884563 73.60518264 -36.4921875 70.45703125 C-36.15677948 69.28300247 -35.82137146 68.10897369 -35.47579956 66.89936829 C-35.16522614 65.80440536 -34.85465271 64.70944244 -34.53466797 63.58129883 C-34.26169891 62.62169754 -33.98872986 61.66209625 -33.70748901 60.67341614 C-33.03382048 58.12779876 -32.48601519 55.5873399 -32 53 C-32.5775 52.66226563 -33.155 52.32453125 -33.75 51.9765625 C-34.86375 51.30753906 -34.86375 51.30753906 -36 50.625 C-36.7425 50.18414062 -37.485 49.74328125 -38.25 49.2890625 C-38.8275 48.86367187 -39.405 48.43828125 -40 48 C-40 47.34 -40 46.68 -40 46 C-40.66 46 -41.32 46 -42 46 C-43.21875 44.4609375 -43.21875 44.4609375 -44.5 42.375 C-45.13421875 41.36566406 -45.13421875 41.36566406 -45.78125 40.3359375 C-49.80480224 32.62412905 -50.44073949 23.80609386 -48.34765625 15.37109375 C-44.86161675 6.76820656 -38.33577217 -0.00140909 -30 -4 C-19.80195786 -7.73928212 -8.88034208 -6.29832665 0 0 Z " fill="#FBFCFE" transform="translate(93,36)"/>
<path d="M0 0 C7.38644013 3.97210496 14.66509832 8.09137589 21.875 12.375 C22.83317627 12.94226807 23.79135254 13.50953613 24.77856445 14.09399414 C29.94596807 17.16037991 35.08429008 20.26556473 40.1875 23.4375 C44.69204228 26.23322237 49.26667891 28.8112711 53.9375 31.31640625 C65.82276554 37.85027034 77.38498907 45.0005611 89 52 C87.125 57.75 87.125 57.75 86 60 C85.77049681 62.204364 85.58924067 64.41392173 85.4375 66.625 C85.35371094 67.81351562 85.26992187 69.00203125 85.18359375 70.2265625 C85.12300781 71.14179688 85.06242188 72.05703125 85 73 C79.66896101 75.07738648 74.39352595 76.8106811 68.85546875 78.234375 C68.0973439 78.43290573 67.33921906 78.63143646 66.55812073 78.83598328 C64.10228147 79.47803245 61.64493077 80.11407231 59.1875 80.75 C57.46051721 81.20023886 55.73363014 81.65084505 54.00683594 82.10180664 C49.75939968 83.20993415 45.51073207 84.31323787 41.26141357 85.41412354 C38.16486861 86.21636194 35.06879804 87.02042596 31.97265625 87.82421875 C28.87506339 88.62790169 25.77720569 89.43048287 22.6784668 90.22973633 C15.48237506 92.08772353 8.29472776 93.97595974 1.109375 95.875 C-1.79466199 96.64101212 -4.69877358 97.40674082 -7.60290527 98.1723938 C-9.52586519 98.68023655 -11.44847666 99.18940067 -13.37072754 99.69992065 C-16.06921339 100.41650969 -18.76885027 101.12860345 -21.46875 101.83984375 C-22.2861969 102.05821899 -23.1036438 102.27659424 -23.94586182 102.50158691 C-27.0410979 103.31342232 -29.78538948 104 -33 104 C-34.25390625 102.05859375 -34.25390625 102.05859375 -35.5625 99.4375 C-39.28129084 92.8595383 -44.80604651 88.3979845 -52 86 C-51.39981371 79.9143902 -50.11822062 74.35276097 -48.375 68.5 C-48.11211182 67.59854248 -47.84922363 66.69708496 -47.57836914 65.76831055 C-46.7244615 62.84388352 -45.86231846 59.92195681 -45 57 C-44.10806724 53.95563446 -43.21824136 50.91066086 -42.32910156 47.86547852 C-41.73708024 45.83830802 -41.14398981 43.81144943 -40.54980469 41.78491211 C-38.45790422 34.63330043 -36.43912684 27.46402108 -34.50952148 20.2668457 C-33.10674664 15.10674664 -33.10674664 15.10674664 -32 14 C-30.00176441 13.86618958 -28.00106963 13.76856185 -26 13.6875 C-17.38121641 13.08333554 -10.85721914 10.26251701 -4 5 C-1.67722584 2.3908613 -1.67722584 2.3908613 0 0 Z " fill="#4AA9F2" transform="translate(99,76)"/>
<path d="M0 0 C6.85134625 3.90405765 11.37886049 9.32558276 13.625 16.9375 C14.69656149 25.3433046 13.55484486 31.97114493 8.625 38.9375 C4.08048716 44.04333034 -1.25321727 47.41206028 -8.1328125 48.2890625 C-16.43826217 48.69265213 -22.94536632 46.88015493 -29.22265625 41.29296875 C-35.02530855 34.97705973 -37.03023601 28.51776415 -36.78515625 20.00390625 C-35.89715814 13.36506323 -32.91510733 8.01568552 -28 3.5 C-19.55741407 -2.88165489 -9.76914642 -4.46463253 0 0 Z " fill="#3984C0" transform="translate(49.375,166.0625)"/>
<path d="M0 0 C6.85134625 3.90405765 11.37886049 9.32558276 13.625 16.9375 C14.69656149 25.3433046 13.55484486 31.97114493 8.625 38.9375 C4.08048716 44.04333034 -1.25321727 47.41206028 -8.1328125 48.2890625 C-16.43826217 48.69265213 -22.94536632 46.88015493 -29.22265625 41.29296875 C-35.02530855 34.97705973 -37.03023601 28.51776415 -36.78515625 20.00390625 C-35.89715814 13.36506323 -32.91510733 8.01568552 -28 3.5 C-19.55741407 -2.88165489 -9.76914642 -4.46463253 0 0 Z " fill="#3984C0" transform="translate(223.375,121.0625)"/>
<path d="M0 0 C6.85134625 3.90405765 11.37886049 9.32558276 13.625 16.9375 C14.69656149 25.3433046 13.55484486 31.97114493 8.625 38.9375 C4.08048716 44.04333034 -1.25321727 47.41206028 -8.1328125 48.2890625 C-16.43826217 48.69265213 -22.94536632 46.88015493 -29.22265625 41.29296875 C-35.02530855 34.97705973 -37.03023601 28.51776415 -36.78515625 20.00390625 C-35.89715814 13.36506323 -32.91510733 8.01568552 -28 3.5 C-19.55741407 -2.88165489 -9.76914642 -4.46463253 0 0 Z " fill="#3984C0" transform="translate(85.375,38.0625)"/>
</svg>
